<?xml version="1.0" encoding="UTF-8" standalone="no"?><!DOCTYPE svg PUBLIC "-//W3C//DTD SVG 1.1//EN" "http://www.w3.org/Graphics/SVG/1.1/DTD/svg11.dtd"><svg width="100%" height="100%" viewBox="0 0 6667 3750" version="1.1" xmlns="http://www.w3.org/2000/svg" xmlns:xlink="http://www.w3.org/1999/xlink" xml:space="preserve" xmlns:serif="http://www.serif.com/" style="fill-rule:evenodd;clip-rule:evenodd;stroke-linejoin:round;stroke-miterlimit:2;"><g><g><path d="M346.292,1674.32c34.703,-79.236 81.482,-149.18 140.336,-209.83c58.854,-60.651 122.44,-107.361 190.759,-140.132c68.319,-32.77 133.884,-49.156 196.698,-49.156c61.928,0 112.478,16.386 151.649,49.156c39.171,32.771 61.621,79.481 67.35,140.132c5.728,60.65 -8.759,130.594 -43.462,209.83c-34.703,79.237 -81.482,149.18 -140.336,209.831c-58.854,60.65 -122.112,107.116 -189.774,139.398c-67.662,32.281 -132.457,48.422 -194.386,48.422c-62.813,-0 -114.133,-16.141 -153.961,-48.422c-39.828,-32.282 -62.606,-78.748 -68.335,-139.398c-5.728,-60.651 8.759,-130.594 43.462,-209.831Zm191.094,0c-29.562,67.498 -37.758,121.056 -24.588,160.675c13.171,39.618 42.758,59.427 88.762,59.427c46.004,0 92.721,-19.809 140.152,-59.427c47.431,-39.619 85.928,-93.177 115.489,-160.675c29.562,-67.498 38.086,-121.3 25.573,-161.408c-12.514,-40.107 -41.773,-60.161 -87.777,-60.161c-46.004,0 -93.05,20.054 -141.137,60.161c-48.088,40.108 -86.913,93.91 -116.474,161.408Z" style="fill:#04d556;fill-rule:nonzero;"/><path d="M1751.26,1275.2c55.735,0 100.414,15.652 134.035,46.955c33.621,31.304 51.084,77.28 52.389,137.931c1.305,60.65 -16.037,132.061 -52.025,214.232c-35.989,82.172 -81.091,153.338 -135.307,213.499c-54.217,60.161 -111.845,105.894 -172.886,137.197c-61.041,31.303 -119.429,46.955 -175.165,46.955c-42.465,-0 -77.764,-9.293 -105.896,-27.88c-28.132,-18.586 -45.787,-46.955 -52.964,-85.106l-190.867,435.802l-184.458,0l481.986,-1100.51l161.899,-0l-17.869,49.889c-3.4,9.783 -7.014,20.054 -10.842,30.815c-3.828,10.76 -7.428,22.01 -10.799,33.749c43.594,-44.999 89.453,-78.503 137.577,-100.514c48.124,-22.01 95.188,-33.015 141.192,-33.015Zm-312.378,616.285c47.773,0 94.94,-19.32 141.5,-57.96c46.56,-38.64 84.622,-91.709 114.183,-159.207c30.419,-69.454 39.814,-124.235 28.185,-164.342c-11.629,-40.108 -41.773,-60.162 -90.431,-60.162c-46.004,0 -93.399,18.831 -142.184,56.493c-48.786,37.662 -89.46,93.666 -122.021,168.011c-32.132,73.368 -40.093,127.904 -23.882,163.609c16.211,35.706 47.761,53.558 94.65,53.558Z" style="fill:#04d556;fill-rule:nonzero;"/><path d="M2499.7,1275.2c61.044,0 108.698,14.918 142.961,44.754c34.264,29.836 52.556,71.9 54.877,126.192c2.32,54.292 -11.943,116.654 -42.791,187.087c-13.709,31.303 -30.288,63.095 -49.734,95.377l-456.501,0c-16.886,56.737 -17.052,99.535 -0.496,128.393c16.556,28.858 46.509,43.287 89.859,43.287c30.964,-0 61.931,-7.582 92.901,-22.744c30.97,-15.163 59.73,-37.907 86.282,-68.232l96.799,88.041c-42.999,55.759 -97.459,98.801 -163.38,129.126c-65.92,30.325 -131.172,45.488 -195.754,45.488c-61.928,-0 -112.793,-15.163 -152.593,-45.488c-39.8,-30.325 -62.564,-75.813 -68.292,-136.463c-5.729,-60.65 10.044,-133.528 47.317,-218.634c36.846,-84.128 84.481,-156.028 142.907,-215.7c58.425,-59.672 120.377,-104.671 185.855,-134.996c65.479,-30.325 128.74,-45.488 189.783,-45.488Zm-77.927,165.81c-36.273,0 -72.806,12.717 -109.602,38.151c-36.795,25.434 -69.684,61.14 -98.668,107.116l273.37,0c17.026,-46.955 19.279,-82.905 6.76,-107.849c-12.519,-24.945 -36.473,-37.418 -71.86,-37.418Z" style="fill:#04d556;fill-rule:nonzero;"/><path d="M3327.78,1275.2c76.083,0 124.139,27.635 144.167,82.905c20.028,55.27 6.907,135.73 -39.364,241.379l-199.221,454.877l-184.458,-0l170.302,-388.847c60.837,-138.909 49.676,-208.363 -33.485,-208.363c-44.235,0 -88.091,18.831 -131.569,56.493c-43.477,37.662 -80.211,90.731 -110.202,159.207l-167.088,381.51l-184.458,-0l332.892,-760.085l161.898,-0c-21.711,59.672 -35.51,100.268 -41.396,121.789c85.364,-93.91 179.358,-140.865 281.982,-140.865Z" style="fill:#04d556;fill-rule:nonzero;"/><path d="M3556.27,1515.25c-0,-112.496 20.348,-210.808 61.043,-294.936c40.696,-84.128 96.211,-148.447 166.543,-192.956c70.333,-44.51 148.85,-66.764 235.549,-66.764c86.7,-0 165.216,22.254 235.549,66.764c70.333,44.509 126.069,108.828 167.207,192.956c41.138,84.128 61.707,182.44 61.707,294.936c0,113.475 -20.569,212.276 -61.707,296.404c-41.138,84.128 -96.874,148.447 -167.207,192.956c-70.333,44.51 -148.849,66.764 -235.549,66.764c-86.699,0 -165.216,-22.254 -235.549,-66.764c-70.332,-44.509 -125.847,-108.828 -166.543,-192.956c-40.695,-84.128 -61.043,-182.929 -61.043,-296.404Zm203.036,0c0,71.411 10.838,134.507 32.513,189.288c21.675,54.781 52.196,97.089 91.565,126.925c39.369,29.836 84.709,44.754 136.021,44.754c51.313,0 96.653,-14.918 136.022,-44.754c39.368,-29.836 69.89,-72.144 91.565,-126.925c21.675,-54.781 32.513,-117.877 32.513,-189.288c-0,-71.41 -10.838,-134.262 -32.513,-188.554c-21.675,-54.291 -52.197,-96.355 -91.565,-126.191c-39.369,-29.836 -84.709,-44.754 -136.022,-44.754c-51.312,-0 -96.652,14.918 -136.021,44.754c-39.369,29.836 -69.89,71.9 -91.565,126.191c-21.675,54.292 -32.513,117.144 -32.513,188.554Z" style="fill:#e9275e;fill-rule:nonzero;"/><path d="M5234.97,1496.17c107.047,42.064 160.571,124.724 160.571,247.981c0,96.845 -32.07,172.658 -96.21,227.439c-64.14,54.781 -154.157,82.171 -270.052,82.171l-387.494,0l-0,-1074.1l351.664,0c103.509,0 187.776,26.168 252.801,78.503c65.024,52.335 97.537,125.947 97.537,220.836c-0,98.801 -36.273,171.19 -108.817,217.167Zm-404.746,-331.62l-0,253.851l144.647,-0c52.196,-0 93.556,-11.984 124.078,-35.95c30.521,-23.967 45.782,-56.004 45.782,-96.112c0,-39.129 -15.039,-69.209 -45.119,-90.241c-30.079,-21.032 -71.66,-31.548 -124.741,-31.548l-144.647,-0Zm183.131,704.326c58.389,-0 103.287,-11.739 134.694,-35.217c31.406,-23.477 47.11,-56.737 47.11,-99.779c-0,-43.042 -15.704,-76.791 -47.11,-101.247c-31.407,-24.456 -76.747,-36.684 -136.021,-36.684l-181.804,0l-0,272.927l183.131,-0Z" style="fill:#e9275e;fill-rule:nonzero;"/><path d="M5972.8,979.666l392.803,1074.1l-204.364,0l-84.93,-245.046l-378.205,-0l-82.277,245.046l-192.42,0l380.859,-1074.1l168.534,0Zm41.138,647.1l-130.049,-377.108l-126.069,377.108l256.118,-0Z" style="fill:#e9275e;fill-rule:nonzero;"/><path d="M3528.99,1062.99c75.412,-200.004 269.166,-362.381 490.341,-362.381c221.176,-0 414.929,162.377 490.341,362.381c-114.413,-111.399 -294.74,-201.841 -490.341,-201.841c-195.601,-0 -375.928,90.442 -490.341,201.841Z" style="fill:#0081ff;"/></g><path d="M1324.63,2235.56l269.824,725.954l-140.381,-0l-58.341,-165.621l-259.797,0l-56.517,165.621l-132.177,-0l261.62,-725.954l115.769,0Zm28.259,437.358l-89.334,-254.878l-86.599,254.878l175.933,-0Z" style="fill:#696863;fill-rule:nonzero;"/><rect x="1671.03" y="2235.56" width="132.177" height="725.953" style="fill:#696863;fill-rule:nonzero;"/><path d="M2595.36,2778.04c40.716,58.182 95.107,114.05 163.17,167.604l-67.456,105.124c-59.555,-52.892 -111.211,-110.413 -154.966,-172.562c-36.463,52.231 -88.118,110.083 -154.967,173.554l-63.81,-85.289l-25.523,49.586c-39.502,-25.124 -78.395,-48.595 -116.681,-70.413c-56.517,39.008 -133.089,75.042 -229.715,108.1l-44.667,-99.174c73.533,-23.141 131.266,-44.629 173.198,-64.463c-37.678,-20.496 -79.914,-42.315 -126.708,-65.455l40.109,-72.397l-77.483,-0l-0,-95.207l123.061,-0c9.116,-21.157 17.016,-41.984 23.701,-62.48l103.007,16.86l-16.408,45.62l192.341,-0l-0,91.24c-23.093,50.909 -48.617,92.562 -76.572,124.959c19.447,9.917 47.098,25.455 82.953,46.612l-4.558,8.925c59.556,-52.892 105.438,-104.793 137.647,-155.703c-30.386,-64.132 -53.783,-136.86 -70.191,-218.182l-24.612,46.611l-37.375,-61.488l-40.109,65.455c-31.601,-27.768 -68.063,-57.521 -109.388,-89.256l0,71.405l-95.714,-0l-0,-91.24c-44.971,53.554 -96.019,98.513 -153.144,134.877l-46.49,-91.241c64.418,-36.363 116.073,-74.711 154.967,-115.041l-132.178,-0l0,-98.183l176.845,0l-0,-191.405l95.714,-0l0,191.405l79.307,0l-60.164,-52.562c38.894,-52.231 68.368,-94.876 88.422,-127.934l70.191,57.521c-32.209,49.587 -61.075,90.579 -86.599,122.975l69.279,0l0,98.183l-146.762,-0l114.857,80.331l-5.469,-7.934c32.816,-54.877 60.315,-114.216 82.497,-178.018c22.181,-63.802 39.045,-126.446 50.592,-187.934l103.007,19.835c-7.9,37.686 -18.535,79.008 -31.905,123.967l222.423,-0l-0,119.009l-57.429,-0c-7.293,83.967 -18.079,156.364 -32.361,217.191c-14.281,60.826 -33.576,116.364 -57.884,166.612Zm-585.227,-452.233c-30.386,-46.943 -58.948,-86.282 -85.687,-118.017l61.986,-59.505c5.47,6.612 24.005,30.083 55.606,70.414l36.463,47.603l-68.368,59.505Zm462.165,84.298c12.154,99.835 31.905,183.141 59.252,249.918c27.955,-71.405 47.401,-160.001 58.34,-265.786l-112.123,-0l-5.469,15.868Zm-386.505,379.836c38.286,17.19 66.545,30.083 84.776,38.678c23.093,-21.157 41.628,-46.612 55.606,-76.364l-123.062,-0l-17.32,37.686Z" style="fill:#696863;fill-rule:nonzero;"/><path d="M2960.89,2340.68l0,120.992l-112.122,0l-0,-236.034l335.457,-0c-4.254,-11.24 -11.547,-29.091 -21.878,-53.554l-12.762,-29.752l126.708,-24.794l44.667,108.1l314.491,-0l-0,237.026l-113.035,-0l0,-121.984l-561.526,-0Zm681.853,324.299l0,116.033l-340.926,0l-0,119.009c-0,40.992 -3.798,71.405 -11.395,91.24c-7.596,19.835 -20.51,33.223 -38.741,40.165c-18.232,6.943 -45.883,10.414 -82.953,10.414c-34.032,-0 -71.102,-2.645 -111.211,-7.934l-21.878,-112.067c48.009,7.273 86.295,10.909 114.858,10.909c15.192,0 25.22,-4.132 30.081,-12.396c4.862,-8.265 7.293,-25.951 7.293,-53.058l-0,-86.282l-353.688,0l-0,-116.033l353.688,-0l-0,-49.587l113.034,-85.29l-311.756,0l0,-112.067l504.097,0l0,111.075l-191.429,131.902l-0,3.967l340.926,-0Z" style="fill:#696863;fill-rule:nonzero;"/><path d="M4583.49,2800.85c-5.469,45.62 -12.761,88.595 -21.877,128.926c-17.016,74.711 -48.009,112.067 -92.98,112.067c-29.17,-0 -52.111,-10.909 -68.823,-32.728c-16.713,-21.818 -29.323,-59.835 -37.831,-114.05c-6.077,-42.314 -10.027,-106.777 -11.85,-193.389l-47.401,103.141l-27.347,-17.851c-13.37,-9.257 -34.64,-23.141 -63.81,-41.653c-13.37,53.554 -31.905,103.306 -55.606,149.256c-23.701,45.951 -56.517,96.695 -98.449,152.232l-92.98,-77.355c40.717,-50.248 72.318,-97.191 94.803,-140.827c22.485,-43.637 39.501,-92.563 51.048,-146.778l-17.32,-10.909c-16.408,-9.256 -30.993,-17.686 -43.755,-25.289c-12.762,-7.604 -23.701,-14.05 -32.817,-19.339l47.402,-102.149l63.809,34.711c4.254,-46.282 6.685,-93.224 7.293,-140.828l0,-16.859l-81.13,-0l0,-114.05l82.953,-0c0,-75.372 -0.304,-128.265 -0.911,-158.678l111.211,-0l-1.823,158.678l210.572,-0l-0,320.332c-0,139.504 0.912,226.116 2.735,259.836c1.215,13.223 3.342,23.967 6.381,32.231c3.038,8.265 6.684,12.397 10.938,12.397c3.039,-0 6.533,-4.298 10.483,-12.893c3.951,-8.595 7.141,-20.496 9.572,-35.702c3.039,-15.868 7.292,-48.265 12.762,-97.191l74.748,34.711Zm-560.614,-209.257l-79.306,36.694l-0,297.522c-0,29.091 -3.191,51.571 -9.572,67.438c-6.381,15.868 -16.864,26.943 -31.449,33.224c-14.585,6.281 -34.943,9.752 -61.075,10.413c-23.701,0 -49.832,-1.653 -78.395,-4.959l-21.877,-118.017c23.7,4.628 45.578,6.942 65.633,6.942c11.546,0 19.294,-2.479 23.245,-7.438c3.95,-4.958 5.925,-14.38 5.925,-28.264l-0,-211.241c-30.386,12.562 -61.987,25.124 -94.803,37.686l-16.409,-121.984c23.094,-7.933 60.164,-21.818 111.212,-41.653l-0,-145.785l-94.803,-0l-0,-114.05l94.803,-0l-0,-155.704l107.565,0l-0,155.704l75.66,-0l-0,114.05l-75.66,-0l-0,100.165c18.231,-7.272 39.197,-16.859 62.898,-28.76l16.408,118.017Zm208.749,27.769c43.756,25.124 83.257,49.256 118.504,72.397c-0.608,-17.191 -0.911,-43.637 -0.911,-79.34l-0,-211.24l-106.654,-0l0,15.868c-0.608,76.033 -4.254,143.471 -10.939,202.315Z" style="fill:#696863;fill-rule:nonzero;"/><path d="M4643.65,2352.59c34.64,-25.786 73.077,-60.992 115.313,-105.621c42.236,-44.628 77.636,-86.446 106.198,-125.455l84.776,80.331c-30.994,41.653 -69.583,86.943 -115.769,135.869c-46.186,48.925 -89.942,90.578 -131.266,124.959l-59.252,-110.083Zm366.45,-175.538l434.818,-0l0,116.033l-434.818,0l0,-116.033Zm-61.075,267.769c-21.27,35.703 -48.617,75.373 -82.041,119.009l0,479.01l-110.3,0l0,-348.1c-31.601,34.38 -58.036,61.488 -79.306,81.323l-47.402,-114.051c41.933,-40.33 84.32,-86.777 127.164,-139.339c42.844,-52.562 78.547,-101.984 107.109,-148.265l84.776,70.413Zm531.444,13.885l0,116.033l-134.912,0l0,316.365c0,51.571 -10.331,88.43 -30.993,110.579c-20.662,22.149 -54.998,33.885 -103.007,35.207c-41.325,0.661 -82.953,-1.322 -124.885,-5.95l-22.789,-120.993c44.363,6.612 84.472,9.918 120.327,9.918c18.231,-0 30.537,-4.463 36.918,-13.389c6.381,-8.925 9.572,-25.289 9.572,-49.091l-0,-282.646l-257.974,0l0,-116.033l507.743,-0Z" style="fill:#696863;fill-rule:nonzero;"/><path d="M6268.98,2658.04l-483.131,0l-0,66.447l507.743,0l0,321.324l-112.123,-0l0,-42.645l-395.62,-0l-0,44.628l-112.123,0l-0,-646.614l-92.98,-0l-0,-189.422l335.457,-0l-27.347,-72.397l127.619,-23.802c9.724,23.802 22.182,55.868 37.375,96.199l311.756,-0l-0,189.422l-96.626,-0l-0,256.86Zm-19.143,-274.711l-0,-66.447l-553.322,0l-0,66.447l553.322,-0Zm-463.988,174.546l370.096,-0l0,-70.414l-370.096,0l-0,70.414Zm395.62,346.117l0,-78.348l-395.62,0l-0,78.348l395.62,-0Z" style="fill:#696863;fill-rule:nonzero;"/></g></svg>